<svg width="48" height="48" viewBox="0 0 48 48" fill="none" xmlns="http://www.w3.org/2000/svg">
<rect width="48" height="48" rx="8" fill="url(#paint0_linear_124_19976)"/>
<g clip-path="url(#clip0_124_19976)">
<path d="M16.5334 15.7131H12.4538V38H35.5078L16.5334 38V31.6081H15.0052C14.683 31.6081 14.4219 31.347 14.4219 31.0248V30.3248C14.4219 30.0026 14.683 29.7415 15.0052 29.7415H16.5334V27.7617H15.0052C14.683 27.7617 14.4219 27.5005 14.4219 27.1783V26.4783C14.4219 26.1562 14.683 25.895 15.0052 25.895H16.5334V23.9152H15.0052C14.683 23.9152 14.4219 23.654 14.4219 23.3319V22.6319C14.4219 22.3097 14.683 22.0485 15.0052 22.0485H16.5334V20.0687H15.0052C14.683 20.0687 14.4219 19.8075 14.4219 19.4854V18.7854C14.4219 18.4632 14.683 18.202 15.0052 18.202H16.5334V15.7131Z" fill="white"/>
<path d="M16.5334 15.7131H12.4538V38H35.5078L16.5334 38V31.6081H15.0052C14.683 31.6081 14.4219 31.347 14.4219 31.0248V30.3248C14.4219 30.0026 14.683 29.7415 15.0052 29.7415H16.5334V27.7617H15.0052C14.683 27.7617 14.4219 27.5005 14.4219 27.1783V26.4783C14.4219 26.1562 14.683 25.895 15.0052 25.895H16.5334V23.9152H15.0052C14.683 23.9152 14.4219 23.654 14.4219 23.3319V22.6319C14.4219 22.3097 14.683 22.0485 15.0052 22.0485H16.5334V20.0687H15.0052C14.683 20.0687 14.4219 19.8075 14.4219 19.4854V18.7854C14.4219 18.4632 14.683 18.202 15.0052 18.202H16.5334V15.7131Z" fill="white"/>
<path d="M11.8667 14.9467C11.8667 14.4312 12.2846 14.0133 12.8 14.0133H16.5334V15.88H12.8C12.2846 15.88 11.8667 15.4621 11.8667 14.9467Z" fill="white"/>
<path d="M12.4538 38H35.5078V15.7131H31.4667V18.202H32.9565C33.2787 18.202 33.5398 18.4632 33.5398 18.7854V19.4854C33.5398 19.8075 33.2787 20.0687 32.9565 20.0687H31.4667V22.0485H32.9565C33.2787 22.0485 33.5398 22.3097 33.5398 22.6319V23.3319C33.5398 23.654 33.2787 23.9152 32.9565 23.9152H31.4667V25.895H32.9565C33.2787 25.895 33.5398 26.1562 33.5398 26.4783V27.1783C33.5398 27.5005 33.2787 27.7617 32.9565 27.7617H31.4667V29.7415H32.9565C33.2787 29.7415 33.5398 30.0026 33.5398 30.3248V31.0248C33.5398 31.347 33.2787 31.6081 32.9565 31.6081H31.4667V38L12.4538 38Z" fill="white"/>
<path d="M31.4667 14.0133H35.2C35.7155 14.0133 36.1334 14.4312 36.1334 14.9467C36.1334 15.4621 35.7155 15.88 35.2 15.88H31.4667V14.0133Z" fill="white"/>
<path fill-rule="evenodd" clip-rule="evenodd" d="M30.6722 11.8667H17.2896V38H21.2V30.5333H26.8V38H30.6722V11.8667ZM20.1292 14.3556C19.6168 14.3556 19.2014 14.7765 19.2014 15.2889C19.2014 15.8013 19.6168 16.2222 20.1292 16.2222C20.6416 16.2222 21.057 15.8013 21.057 15.2889C21.057 14.7765 20.6416 14.3556 20.1292 14.3556ZM19.2014 19.1354C19.2014 18.623 19.6168 18.2021 20.1292 18.2021C20.6416 18.2021 21.057 18.623 21.057 19.1354C21.057 19.6478 20.6416 20.0688 20.1292 20.0688C19.6168 20.0688 19.2014 19.6478 19.2014 19.1354ZM20.1292 22.0486C19.6168 22.0486 19.2014 22.4695 19.2014 22.9819C19.2014 23.4943 19.6168 23.9152 20.1292 23.9152C20.6416 23.9152 21.057 23.4943 21.057 22.9819C21.057 22.4695 20.6416 22.0486 20.1292 22.0486ZM19.2014 26.8284C19.2014 26.316 19.6168 25.895 20.1292 25.895C20.6416 25.895 21.057 26.316 21.057 26.8284C21.057 27.3408 20.6416 27.7617 20.1292 27.7617C19.6168 27.7617 19.2014 27.3408 19.2014 26.8284ZM23.9528 14.3556C23.4403 14.3556 23.025 14.7765 23.025 15.2889C23.025 15.8013 23.4403 16.2222 23.9528 16.2222C24.4652 16.2222 24.8805 15.8013 24.8805 15.2889C24.8805 14.7765 24.4652 14.3556 23.9528 14.3556ZM23.025 19.1354C23.025 18.623 23.4404 18.2021 23.9528 18.2021C24.4652 18.2021 24.8806 18.623 24.8806 19.1354C24.8806 19.6478 24.4652 20.0688 23.9528 20.0688C23.4404 20.0688 23.025 19.6478 23.025 19.1354ZM23.9528 22.0486C23.4404 22.0486 23.025 22.4695 23.025 22.9819C23.025 23.4943 23.4404 23.9152 23.9528 23.9152C24.4652 23.9152 24.8806 23.4943 24.8806 22.9819C24.8806 22.4695 24.4652 22.0486 23.9528 22.0486ZM23.025 26.8284C23.025 26.316 23.4404 25.895 23.9528 25.895C24.4652 25.895 24.8806 26.316 24.8806 26.8284C24.8806 27.3408 24.4652 27.7617 23.9528 27.7617C23.4404 27.7617 23.025 27.3408 23.025 26.8284ZM27.7763 14.3556C27.2639 14.3556 26.8486 14.7765 26.8486 15.2889C26.8486 15.8013 27.2639 16.2222 27.7763 16.2222C28.2887 16.2222 28.7041 15.8013 28.7041 15.2889C28.7041 14.7765 28.2887 14.3556 27.7763 14.3556ZM26.8486 19.1354C26.8486 18.623 27.264 18.2021 27.7764 18.2021C28.2888 18.2021 28.7041 18.623 28.7041 19.1354C28.7041 19.6478 28.2888 20.0688 27.7764 20.0688C27.264 20.0688 26.8486 19.6478 26.8486 19.1354ZM27.7764 22.0486C27.264 22.0486 26.8486 22.4695 26.8486 22.9819C26.8486 23.4943 27.264 23.9152 27.7764 23.9152C28.2888 23.9152 28.7041 23.4943 28.7041 22.9819C28.7041 22.4695 28.2888 22.0486 27.7764 22.0486ZM26.8486 26.8284C26.8486 26.316 27.264 25.8951 27.7764 25.8951C28.2888 25.8951 28.7041 26.316 28.7041 26.8284C28.7041 27.3408 28.2888 27.7618 27.7764 27.7618C27.264 27.7618 26.8486 27.3408 26.8486 26.8284Z" fill="white"/>
<path d="M16.3337 10.9333C16.3337 10.4179 16.7516 10 17.267 10H30.6947C31.2102 10 31.6281 10.4179 31.6281 10.9333C31.6281 11.4488 31.2102 11.8667 30.6947 11.8667H17.267C16.7516 11.8667 16.3337 11.4488 16.3337 10.9333Z" fill="white"/>
<path d="M36.9518 35.5676C38.5262 36.0485 38.1607 37.8868 36.9518 37.9434H36.1333V34.2502C36.854 34.2651 36.9518 34.8168 36.9518 35.5676Z" fill="white"/>
<path d="M11.0482 35.5676C9.4738 36.0485 9.83929 37.8868 11.0482 37.9434H11.8667V34.2502C11.146 34.2651 11.0482 34.8168 11.0482 35.5676Z" fill="white"/>
</g>
<defs>
<linearGradient id="paint0_linear_124_19976" x1="0" y1="48" x2="48" y2="0" gradientUnits="userSpaceOnUse">
<stop offset="0.172765" stop-color="#92929F"/>
<stop offset="1" stop-color="#D5D5D8"/>
</linearGradient>
<clipPath id="clip0_124_19976">
<rect width="28" height="28" fill="white" transform="translate(10 10)"/>
</clipPath>
</defs>
</svg>
